<svg width="23" height="17" viewBox="0 0 23 17" fill="none" xmlns="http://www.w3.org/2000/svg">
<path d="M6.44797 12.665C6.44595 11.8924 6.17793 11.1441 5.68897 10.546L6.55997 9.47498C7.09606 10.0582 7.47284 10.7698 7.65397 11.541C7.73561 11.9098 7.77719 12.2863 7.77797 12.664C7.7753 12.8376 7.84159 13.0052 7.96231 13.1301C8.08303 13.2549 8.24833 13.3268 8.42197 13.33L14.502 13.33C14.7535 14.0982 15.239 14.7686 15.8904 15.2471C16.5419 15.7257 17.3267 15.9886 18.135 15.999C19.1776 15.9795 20.17 15.5476 20.8948 14.7979C21.6197 14.0481 22.0178 13.0417 22.002 11.999C22.018 10.9562 21.62 9.9496 20.8951 9.1998C20.1703 8.45 19.1777 8.01818 18.135 7.99898C17.0919 8.01766 16.0988 8.44925 15.3735 9.19911C14.6482 9.94896 14.2499 10.9559 14.266 11.999H12.935C12.936 10.948 13.2417 9.91983 13.815 9.03898C13.5376 8.43408 13.1165 7.90618 12.5884 7.50129C12.0603 7.0964 11.4411 6.8268 10.785 6.71598C10.6958 6.70107 10.6108 6.66765 10.5354 6.61788C10.4599 6.5681 10.3957 6.50307 10.347 6.42698L8.87797 4.15098C8.55694 3.64693 8.10197 3.24216 7.56397 2.98198C7.56397 2.98698 7.55497 2.98898 7.54897 2.99498C7.21768 2.82741 6.85899 2.72072 6.48997 2.67998V1.39098C6.67486 1.35961 6.86158 1.34024 7.04897 1.33298H7.77797C7.95027 1.3263 8.11329 1.25316 8.23284 1.1289C8.35238 1.00464 8.41915 0.838908 8.41915 0.666479C8.41915 0.49405 8.35238 0.328321 8.23284 0.204059C8.11329 0.0797958 7.95027 0.00665379 7.77797 -2.09808e-05L7.04897 -2.09808e-05C5.51039 0.0408154 4.04938 0.684205 2.98049 1.79162C1.9116 2.89904 1.32033 4.38192 1.33397 5.92098C1.3178 6.48616 1.52596 7.03478 1.91297 7.44698C2.08269 7.62247 2.28614 7.76183 2.51109 7.85669C2.73604 7.95155 2.97784 7.99995 3.22197 7.99898C3.58791 7.9995 3.95272 8.03973 4.30997 8.11898C4.75064 8.22446 5.17138 8.40039 5.55597 8.63998L4.68497 9.71098C4.23723 9.46653 3.73608 9.33634 3.22598 9.33198C2.3569 9.34776 1.52952 9.70745 0.925186 10.3322C0.320852 10.957 -0.0111389 11.7959 0.00197411 12.665C-0.0132751 13.0978 0.0588017 13.5292 0.213905 13.9336C0.369009 14.3379 0.603964 14.7069 0.904753 15.0184C1.20554 15.33 1.566 15.5778 1.96463 15.7471C2.36327 15.9163 2.7919 16.0035 3.22497 16.0035C3.65805 16.0035 4.08668 15.9163 4.48532 15.7471C4.88395 15.5778 5.24441 15.33 5.5452 15.0184C5.84599 14.7069 6.08094 14.3379 6.23604 13.9336C6.39115 13.5292 6.46322 13.0978 6.44797 12.665ZM5.15797 12.665C5.16631 12.9241 5.12248 13.1822 5.02909 13.424C4.9357 13.6658 4.79465 13.8863 4.61433 14.0725C4.43401 14.2588 4.2181 14.4068 3.97943 14.5079C3.74075 14.6091 3.48418 14.6612 3.22497 14.6612C2.96576 14.6612 2.7092 14.6091 2.47052 14.5079C2.23185 14.4068 2.01594 14.2588 1.83562 14.0725C1.6553 13.8863 1.51425 13.6658 1.42086 13.424C1.32747 13.1822 1.28364 12.9241 1.29198 12.665C1.28368 12.1434 1.48267 11.6399 1.84527 11.2649C2.20787 10.89 2.70444 10.6742 3.22598 10.665C3.44113 10.6676 3.65423 10.7072 3.85597 10.782L2.72197 12.248C2.61457 12.3871 2.56502 12.5623 2.58365 12.7371C2.60228 12.9118 2.68766 13.0726 2.82197 13.186C2.88729 13.2408 2.96305 13.2818 3.04467 13.3066C3.12629 13.3313 3.21208 13.3393 3.29686 13.3299C3.38163 13.3206 3.46363 13.2941 3.5379 13.2522C3.61217 13.2103 3.67717 13.1537 3.72897 13.086L4.86197 11.615C5.05444 11.9314 5.15647 12.2946 5.15697 12.665H5.15797ZM20.712 11.999C20.7227 12.694 20.4575 13.365 19.9745 13.8649C19.4914 14.3648 18.83 14.6528 18.135 14.666C17.6793 14.6618 17.2331 14.5359 16.8424 14.3013C16.4518 14.0668 16.1309 13.7321 15.913 13.332H17.489C18.0104 13.3225 18.5068 13.1067 18.8694 12.7317C19.2319 12.3568 19.431 11.8535 19.423 11.332C19.4264 11.2452 19.4123 11.1586 19.3814 11.0775C19.3506 10.9963 19.3036 10.9222 19.2434 10.8596C19.1833 10.797 19.1111 10.7472 19.0312 10.7131C18.9513 10.6791 18.8653 10.6616 18.7785 10.6616C18.6916 10.6616 18.6057 10.6791 18.5258 10.7131C18.4459 10.7472 18.3737 10.797 18.3135 10.8596C18.2533 10.9222 18.2064 10.9963 18.1755 11.0775C18.1447 11.1586 18.1306 11.2452 18.134 11.332C18.1366 11.5059 18.0703 11.6738 17.9493 11.7988C17.8284 11.9238 17.6629 11.9958 17.489 11.999H15.556C15.5453 11.3036 15.8107 10.6323 16.2942 10.1324C16.7777 9.63245 17.4396 9.3446 18.135 9.33198C18.83 9.34513 19.4914 9.6332 19.9745 10.1331C20.4575 10.633 20.7227 11.3039 20.712 11.999ZM18.779 6.66398C19.6476 6.6482 20.4746 6.28875 21.0787 5.66439C21.6828 5.04003 22.0148 4.20167 22.002 3.33298C22.0034 3.24661 21.9878 3.16081 21.9561 3.08048C21.9244 3.00014 21.8771 2.92686 21.817 2.86481C21.7569 2.80277 21.6852 2.75318 21.6059 2.71889C21.5266 2.6846 21.4413 2.66628 21.355 2.66498H18.527L14.391 5.20698C13.8519 5.53262 13.2826 5.80523 12.691 6.02098C13.5193 6.47782 14.2139 7.14312 14.706 7.95098C14.706 7.96198 14.706 7.97298 14.716 7.98398C15.2652 7.49512 15.9098 7.12543 16.6092 6.89824C17.3085 6.67104 18.0473 6.59128 18.779 6.66398ZM13.73 4.06398L14.759 3.42298C14.3581 2.78754 13.804 2.26304 13.1475 1.89767C12.491 1.5323 11.7533 1.33778 11.002 1.33198C10.1495 1.33894 9.31782 1.59589 8.60997 2.07098C9.14505 2.41934 9.60201 2.87495 9.95197 3.40898L11.052 5.12398C11.9987 4.92583 12.9044 4.56697 13.73 4.06298V4.06398Z" fill="#272A37"/>
</svg>
