<svg width="18" height="16" viewBox="0 0 18 16" fill="none" xmlns="http://www.w3.org/2000/svg">
<path fill-rule="evenodd" clip-rule="evenodd" d="M8.25893 14.3789V1.61978C8.28343 1.25628 8.60762 0.979985 8.98481 1.00114C9.362 0.979985 9.68619 1.25628 9.71069 1.61978V14.3789C9.68657 14.7427 9.36239 15.0196 8.98481 14.9989C8.60723 15.0196 8.28305 14.7427 8.25893 14.3789ZM12.6142 14.2984C12.2133 14.2984 11.8884 13.9851 11.8884 13.5986H11.1625V12.2514H14.9189V8.76632L14.8884 8.69633H11.1625V7.2967H14.2533L12.9569 4.44634H11.1625V3.10059H13.0251C13.5064 3.10567 13.9391 3.38467 14.1277 3.8116L15.7108 7.2995H16.2741C16.675 7.2995 17 7.61282 17 7.99932C17 8.38581 16.675 8.69913 16.2741 8.69913H16.2436V12.9253C16.2526 13.2872 15.9563 13.5879 15.5809 13.5979H15.5178C15.5178 13.9844 15.1928 14.2977 14.7919 14.2977L12.6142 14.2984ZM2.4519 13.5985C2.4519 13.985 2.77689 14.2984 3.17778 14.2984L5.35542 14.2963C5.75632 14.2963 6.0813 13.9829 6.0813 13.5964H6.80718V12.2514H3.05003V8.7691L3.07979 8.69912H6.80718V7.29948H3.71493L5.0099 4.44632H6.80718V3.10057H4.9424C4.46076 3.1052 4.02766 3.3843 3.83906 3.81159L2.25591 7.29948H1.69626C1.30381 7.30789 0.99244 7.62092 1.00014 7.9993C0.992841 8.37753 1.30398 8.69032 1.69626 8.69912H1.72602V12.9253C1.71667 13.287 2.01224 13.5879 2.3873 13.5985H2.4519Z" fill="#6F7383"/>
<path d="M8.25893 1.61978L8.20893 1.61641V1.61978H8.25893ZM8.25893 14.3789H8.20882L8.20904 14.3822L8.25893 14.3789ZM8.98481 1.00114L8.98199 1.05137L8.98761 1.05106L8.98481 1.00114ZM9.71069 1.61978H9.7608L9.76058 1.61642L9.71069 1.61978ZM9.71069 14.3789L9.76069 14.3822V14.3789H9.71069ZM8.98481 14.9989L8.98757 14.9487L8.98207 14.949L8.98481 14.9989ZM11.8884 13.5986H11.9384V13.5486H11.8884V13.5986ZM12.6142 14.2984V14.3484H12.6143L12.6142 14.2984ZM11.1625 13.5986H11.1125V13.6486H11.1625V13.5986ZM11.1625 12.2514V12.2014H11.1125V12.2514H11.1625ZM14.9189 12.2514V12.3014H14.9689V12.2514H14.9189ZM14.9189 8.76632H14.9689V8.7559L14.9648 8.74635L14.9189 8.76632ZM14.8884 8.69633L14.9343 8.67636L14.9212 8.64633H14.8884V8.69633ZM11.1625 8.69633H11.1125V8.74633H11.1625V8.69633ZM11.1625 7.2967V7.2467H11.1125V7.2967H11.1625ZM14.2533 7.2967V7.3467H14.331L14.2988 7.276L14.2533 7.2967ZM12.9569 4.44634L13.0024 4.42564L12.989 4.39634H12.9569V4.44634ZM11.1625 4.44634H11.1125V4.49634H11.1625V4.44634ZM11.1625 3.10059V3.05059H11.1125V3.10059H11.1625ZM13.0251 3.10059L13.0256 3.05059H13.0251V3.10059ZM14.1277 3.8116L14.082 3.83181L14.0822 3.83227L14.1277 3.8116ZM15.7108 7.2995L15.6653 7.32016L15.6786 7.3495H15.7108V7.2995ZM16.2436 8.69913V8.64913H16.1936V8.69913H16.2436ZM16.2436 12.9253H16.1936L16.1937 12.9266L16.2436 12.9253ZM15.5809 13.5979V13.6479L15.5822 13.6478L15.5809 13.5979ZM15.5178 13.5979V13.5479H15.4678V13.5979H15.5178ZM14.7919 14.2977V14.2477H14.7919L14.7919 14.2977ZM3.17778 14.2984V14.3484H3.17783L3.17778 14.2984ZM2.4519 13.5985H2.5019V13.5485H2.4519V13.5985ZM5.35542 14.2963V14.2463H5.35538L5.35542 14.2963ZM6.0813 13.5964V13.5464H6.0313V13.5964H6.0813ZM6.80718 13.5964V13.6464H6.85718V13.5964H6.80718ZM6.80718 12.2514H6.85718V12.2014H6.80718V12.2514ZM3.05003 12.2514H3.00003V12.3014H3.05003V12.2514ZM3.05003 8.7691L3.00401 8.74953L3.00003 8.75891V8.7691H3.05003ZM3.07979 8.69912V8.64912H3.04672L3.03378 8.67955L3.07979 8.69912ZM6.80718 8.69912V8.74912H6.85718V8.69912H6.80718ZM6.80718 7.29948H6.85718V7.24948H6.80718V7.29948ZM3.71493 7.29948L3.6694 7.27882L3.63733 7.34948H3.71493V7.29948ZM5.0099 4.44632V4.39632H4.97769L4.96437 4.42566L5.0099 4.44632ZM6.80718 4.44632V4.49632H6.85718V4.44632H6.80718ZM6.80718 3.10057H6.85718V3.05057H6.80718V3.10057ZM4.9424 3.10057V3.05057L4.94192 3.05057L4.9424 3.10057ZM3.83906 3.81159L3.88459 3.83225L3.8848 3.83178L3.83906 3.81159ZM2.25591 7.29948V7.34948H2.28813L2.30144 7.32015L2.25591 7.29948ZM1.69626 7.29948V7.24947L1.69519 7.24949L1.69626 7.29948ZM1.00014 7.9993L1.05017 8.00026L1.05013 7.99828L1.00014 7.9993ZM1.69626 8.69912L1.69514 8.74912H1.69626V8.69912ZM1.72602 8.69912H1.77602V8.64912H1.72602V8.69912ZM1.72602 12.9253L1.77602 12.9266V12.9253H1.72602ZM2.3873 13.5985L2.38587 13.6485H2.3873V13.5985ZM8.20893 1.61978V14.3789H8.30893V1.61978H8.20893ZM8.98761 0.951216C8.58476 0.928625 8.23549 1.22393 8.20904 1.61642L8.30882 1.62314C8.33136 1.28864 8.63048 1.03135 8.98201 1.05106L8.98761 0.951216ZM9.76058 1.61642C9.73413 1.22393 9.38486 0.928625 8.98201 0.951216L8.98761 1.05106C9.33914 1.03135 9.63826 1.28864 9.6608 1.62314L9.76058 1.61642ZM9.76069 14.3789V1.61978H9.66069V14.3789H9.76069ZM8.98207 15.0488C9.3853 15.071 9.73454 14.775 9.76058 14.3822L9.6608 14.3756C9.6386 14.7104 9.33947 14.9683 8.98755 14.949L8.98207 15.0488ZM8.20904 14.3822C8.23508 14.775 8.58431 15.071 8.98755 15.0488L8.98207 14.949C8.63015 14.9683 8.33102 14.7104 8.30882 14.3756L8.20904 14.3822ZM11.8384 13.5986C11.8384 14.0144 12.1875 14.3484 12.6142 14.3484V14.2484C12.2392 14.2484 11.9384 13.9557 11.9384 13.5986H11.8384ZM11.1625 13.6486H11.8884V13.5486H11.1625V13.6486ZM11.1125 12.2514V13.5986H11.2125V12.2514H11.1125ZM14.9189 12.2014H11.1625V12.3014H14.9189V12.2014ZM14.8689 8.76632V12.2514H14.9689V8.76632H14.8689ZM14.8426 8.7163L14.8731 8.78629L14.9648 8.74635L14.9343 8.67636L14.8426 8.7163ZM11.1625 8.74633H14.8884V8.64633H11.1625V8.74633ZM11.1125 7.2967V8.69633H11.2125V7.2967H11.1125ZM14.2533 7.2467H11.1625V7.3467H14.2533V7.2467ZM12.9113 4.46704L14.2078 7.3174L14.2988 7.276L13.0024 4.42564L12.9113 4.46704ZM11.1625 4.49634H12.9569V4.39634H11.1625V4.49634ZM11.1125 3.10059V4.44634H11.2125V3.10059H11.1125ZM13.0251 3.05059H11.1625V3.15059H13.0251V3.05059ZM14.1734 3.79139C13.9766 3.34581 13.5257 3.05587 13.0256 3.05059L13.0246 3.15058C13.4871 3.15547 13.9016 3.42352 14.082 3.83181L14.1734 3.79139ZM15.7564 7.27883L14.1732 3.79094L14.0822 3.83227L15.6653 7.32016L15.7564 7.27883ZM16.2741 7.2495H15.7108V7.3495H16.2741V7.2495ZM17.05 7.99932C17.05 7.58349 16.7009 7.2495 16.2741 7.2495V7.3495C16.6491 7.3495 16.95 7.64214 16.95 7.99932H17.05ZM16.2741 8.74913C16.7009 8.74913 17.05 8.41514 17.05 7.99932H16.95C16.95 8.35649 16.6491 8.64913 16.2741 8.64913V8.74913ZM16.2436 8.74913H16.2741V8.64913H16.2436V8.74913ZM16.2936 12.9253V8.69913H16.1936V12.9253H16.2936ZM15.5822 13.6478C15.9834 13.6372 16.3033 13.3153 16.2936 12.9241L16.1937 12.9266C16.2019 13.2592 15.9291 13.5386 15.5796 13.5479L15.5822 13.6478ZM15.5178 13.6479H15.5809V13.5479H15.5178V13.6479ZM14.7919 14.3477C15.2187 14.3477 15.5678 14.0137 15.5678 13.5979H15.4678C15.4678 13.955 15.1669 14.2477 14.7919 14.2477V14.3477ZM12.6143 14.3484L14.7919 14.3477L14.7919 14.2477L12.6142 14.2484L12.6143 14.3484ZM3.17778 14.2484C2.80276 14.2484 2.5019 13.9557 2.5019 13.5985H2.4019C2.4019 14.0144 2.75101 14.3484 3.17778 14.3484V14.2484ZM5.35538 14.2463L3.17773 14.2484L3.17783 14.3484L5.35547 14.3463L5.35538 14.2463ZM6.0313 13.5964C6.0313 13.9536 5.73044 14.2463 5.35542 14.2463V14.3463C5.78219 14.3463 6.1313 14.0123 6.1313 13.5964H6.0313ZM6.80718 13.5464H6.0813V13.6464H6.80718V13.5464ZM6.75718 12.2514V13.5964H6.85718V12.2514H6.75718ZM3.05003 12.3014H6.80718V12.2014H3.05003V12.3014ZM3.00003 8.7691V12.2514H3.10003V8.7691H3.00003ZM3.03378 8.67955L3.00401 8.74953L3.09604 8.78867L3.1258 8.71868L3.03378 8.67955ZM6.80718 8.64912H3.07979V8.74912H6.80718V8.64912ZM6.75718 7.29948V8.69912H6.85718V7.29948H6.75718ZM3.71493 7.34948H6.80718V7.24948H3.71493V7.34948ZM4.96437 4.42566L3.6694 7.27882L3.76046 7.32015L5.05543 4.46699L4.96437 4.42566ZM6.80718 4.39632H5.0099V4.49632H6.80718V4.39632ZM6.75718 3.10057V4.44632H6.85718V3.10057H6.75718ZM4.9424 3.15057H6.80718V3.05057H4.9424V3.15057ZM3.8848 3.83178C4.06516 3.42316 4.48008 3.15502 4.94288 3.15057L4.94192 3.05057C4.44144 3.05538 3.99016 3.34543 3.79332 3.79139L3.8848 3.83178ZM2.30144 7.32015L3.88459 3.83225L3.79353 3.79092L2.21038 7.27881L2.30144 7.32015ZM1.69626 7.34948H2.25591V7.24948H1.69626V7.34948ZM1.05013 7.99828C1.04303 7.64919 1.33073 7.35733 1.69733 7.34947L1.69519 7.24949C1.27688 7.25846 0.941854 7.59265 0.95015 8.00032L1.05013 7.99828ZM1.69738 8.64913C1.33092 8.64091 1.0434 8.34925 1.05013 8.00026L0.950149 7.99833C0.942286 8.40581 1.27704 8.73973 1.69514 8.7491L1.69738 8.64913ZM1.72602 8.64912H1.69626V8.74912H1.72602V8.64912ZM1.77602 12.9253V8.69912H1.67602V12.9253H1.77602ZM2.38872 13.5486C2.03949 13.5386 1.76741 13.259 1.776 12.9266L1.67604 12.924C1.66593 13.3149 1.985 13.6371 2.38588 13.6485L2.38872 13.5486ZM2.4519 13.5485H2.3873V13.6485H2.4519V13.5485Z" fill="#6F7383"/>
</svg>
