<svg width="8" height="12" viewBox="0 0 8 12" fill="none" xmlns="http://www.w3.org/2000/svg">
<path fill-rule="evenodd" clip-rule="evenodd" d="M4.41916 12V10.6784C5.23598 10.6258 5.94213 10.446 6.53762 10.1392C7.51254 9.63945 8 8.83726 8 7.7326C8 6.89534 7.64429 6.24658 6.93286 5.7863C6.50074 5.51014 5.65756 5.19233 4.40335 4.83288V2.32767C4.93033 2.35836 5.29395 2.52932 5.4942 2.84055C5.61014 3.02027 5.68918 3.30521 5.73134 3.69534H7.81029C7.77867 2.64329 7.31756 1.88274 6.42696 1.4137C5.93686 1.12 5.26233 0.944658 4.40335 0.887671V0H3.6524V0.874521C3.11487 0.909589 2.70646 0.964384 2.42716 1.0389C1.96869 1.15726 1.55237 1.37205 1.17821 1.68329C0.888374 1.92438 0.663089 2.21151 0.50236 2.54466C0.34163 2.87781 0.261265 3.24822 0.261265 3.65589C0.261265 4.27397 0.468106 4.80219 0.881787 5.24055C1.29547 5.6789 2.00558 6.02082 3.01211 6.2663L3.6524 6.42411V9.23178C3.05164 9.14411 2.64849 8.95342 2.44297 8.65973C2.31123 8.47123 2.20846 8.10082 2.13469 7.54849H0.000408866C-0.0154006 8.76274 0.427265 9.62192 1.3284 10.126C1.83958 10.4066 2.61424 10.5951 3.6524 10.6915V12H4.41916ZM3.65235 4.64877C3.26765 4.54794 2.98308 4.43835 2.79864 4.32C2.46664 4.1052 2.30064 3.8137 2.30064 3.44548C2.30064 3.10794 2.41131 2.84164 2.63264 2.64657C2.85397 2.45151 3.19388 2.34959 3.65235 2.34082V4.64877ZM4.40332 6.64108V9.21204C4.81964 9.16821 5.12265 9.0893 5.31236 8.97533C5.64436 8.77369 5.81036 8.42519 5.81036 7.92985C5.81036 7.55286 5.6549 7.25478 5.34398 7.0356C5.15954 6.90848 4.84599 6.77697 4.40332 6.64108Z" fill="#272A37"/>
</svg>
