<svg width="16" height="16" viewBox="0 0 16 16" fill="none" xmlns="http://www.w3.org/2000/svg">
<path fill-rule="evenodd" clip-rule="evenodd" d="M5.52488 2C5.13653 2 4.82171 2.35066 4.82171 2.78322C4.82171 3.21578 5.13653 3.56643 5.52488 3.56643H7.33347V5.27273H5.68644C5.51194 5.27273 5.3446 5.3412 5.22121 5.46308L4.00406 6.66538H3.33668C2.97331 6.66538 2.67875 6.95635 2.67875 7.31528V8.54545H1.50009V7.13369C1.50009 6.7084 1.16428 6.36364 0.750043 6.36364C0.335806 6.36364 0 6.7084 0 7.13369V12.084C0 12.5093 0.335806 12.8541 0.750043 12.8541C1.16428 12.8541 1.50009 12.5093 1.50009 12.084V10.0856H2.67875V11.9574C2.67875 12.3164 2.97331 12.6074 3.33668 12.6074H4.00406L5.22121 13.8096C5.3446 13.9315 5.51194 14 5.68644 14H10.8559C10.9983 14 11.1368 13.9544 11.2507 13.87L13.1305 12.4774C13.2961 12.3546 13.3936 12.162 13.3936 11.9574V10.0856H14.4999V12.084C14.4999 12.5093 14.8357 12.8541 15.25 12.8541C15.6642 12.8541 16 12.5093 16 12.084V7.13369C16 6.7084 15.6642 6.36364 15.25 6.36364C14.8357 6.36364 14.4999 6.7084 14.4999 7.13369V8.54545H13.3936V7.31528C13.3936 7.14292 13.3243 6.97761 13.2009 6.85573L11.7911 5.46308C11.6677 5.3412 11.5004 5.27273 11.3259 5.27273H8.7398V3.56643H10.5475C10.9358 3.56643 11.2507 3.21578 11.2507 2.78322C11.2507 2.35066 10.9358 2 10.5475 2H8.03664H5.52488ZM4.74181 7.77483L5.95896 6.57253H11.0533L12.0778 7.58448V11.6325L10.6366 12.7002H5.95896L4.74181 11.4979C4.61843 11.376 4.45108 11.3075 4.27658 11.3075H3.99461V7.96518H4.27658C4.45108 7.96518 4.61843 7.89671 4.74181 7.77483Z" fill="#9CA2AA"/>
</svg>
