<svg width="235" height="16" viewBox="0 0 235 16" fill="none" xmlns="http://www.w3.org/2000/svg">
<path d="M3.322 13.393C2.78667 13.393 2.30633 13.2793 1.881 13.052C1.45567 12.8247 1.122 12.4983 0.88 12.073C0.638 11.6477 0.517 11.1563 0.517 10.599C0.517 10.0637 0.627 9.59433 0.847 9.191C1.07433 8.78767 1.38233 8.46867 1.771 8.234C2.167 7.992 2.618 7.84533 3.124 7.794C3.88667 7.72067 4.268 7.36867 4.268 6.738C4.268 6.474 4.18 6.265 4.004 6.111C3.828 5.957 3.57867 5.88 3.256 5.88C2.94067 5.88733 2.695 5.968 2.519 6.122C2.35033 6.276 2.25133 6.49967 2.222 6.793L1.122 6.749C1.17333 6.22833 1.386 5.80667 1.76 5.484C2.134 5.154 2.63267 4.989 3.256 4.989C3.674 4.989 4.04067 5.06233 4.356 5.209C4.67133 5.35567 4.91333 5.55367 5.082 5.803C5.258 6.05233 5.346 6.32733 5.346 6.628C5.346 6.97267 5.27633 7.26233 5.137 7.497C4.99767 7.73167 4.77767 7.92233 4.477 8.069C4.99767 8.25233 5.401 8.56767 5.687 9.015C5.973 9.46233 6.116 9.99033 6.116 10.599C6.116 11.1563 5.99133 11.6477 5.742 12.073C5.5 12.4983 5.16633 12.8247 4.741 13.052C4.323 13.2793 3.85 13.393 3.322 13.393ZM3.322 12.469C3.82067 12.469 4.22767 12.3003 4.543 11.963C4.86567 11.6257 5.027 11.171 5.027 10.599C5.027 10.027 4.86567 9.57233 4.543 9.235C4.22767 8.89767 3.82067 8.729 3.322 8.729C2.816 8.729 2.40167 8.89767 2.079 9.235C1.76367 9.565 1.606 10.0197 1.606 10.599C1.606 11.1783 1.76367 11.633 2.079 11.963C2.40167 12.3003 2.816 12.469 3.322 12.469ZM9.85712 5.11C9.84978 5.35933 9.91212 5.572 10.0441 5.748C10.1761 5.924 10.3815 6.133 10.6601 6.375C10.9021 6.58033 11.0965 6.76733 11.2431 6.936C11.3971 7.10467 11.5291 7.31367 11.6391 7.563C11.7491 7.805 11.8041 8.091 11.8041 8.421C11.8041 8.87567 11.6905 9.268 11.4631 9.598C11.2431 9.928 10.9425 10.181 10.5611 10.357C10.1871 10.5257 9.77278 10.61 9.31812 10.61C8.85612 10.61 8.43445 10.5147 8.05312 10.324C7.67912 10.1333 7.38212 9.862 7.16212 9.51C6.94945 9.15067 6.84312 8.74 6.84312 8.278C6.84312 8.058 6.86512 7.83433 6.90912 7.607L7.97612 7.64C7.93945 7.84533 7.92112 8.02867 7.92112 8.19C7.92112 8.65933 8.04945 9.02967 8.30612 9.301C8.56278 9.565 8.90012 9.697 9.31812 9.697C9.73612 9.697 10.0735 9.58333 10.3301 9.356C10.5941 9.12867 10.7261 8.80967 10.7261 8.399C10.7261 8.09833 10.6491 7.849 10.4951 7.651C10.3485 7.453 10.1211 7.22567 9.81312 6.969C9.57845 6.771 9.38778 6.59867 9.24112 6.452C9.10178 6.298 8.98445 6.111 8.88912 5.891C8.80112 5.66367 8.76445 5.40333 8.77912 5.11H9.85712ZM15.7431 10.61C15.1857 10.61 14.6981 10.4927 14.2801 10.258C13.8694 10.0233 13.5541 9.697 13.3341 9.279C13.1141 8.85367 13.0041 8.366 13.0041 7.816V4.12C13.0041 3.46733 13.2204 2.943 13.6531 2.547C14.0931 2.151 14.6834 1.953 15.4241 1.953H18.0971V2.888H15.4791C15.0317 2.888 14.6871 2.99433 14.4451 3.207C14.2031 3.41233 14.0821 3.72033 14.0821 4.131V5.836C14.2434 5.57933 14.4817 5.374 14.7971 5.22C15.1124 5.066 15.4681 4.989 15.8641 4.989C16.3774 4.989 16.8284 5.11 17.2171 5.352C17.6131 5.58667 17.9174 5.91667 18.1301 6.342C18.3501 6.76733 18.4601 7.25867 18.4601 7.816C18.4601 8.366 18.3501 8.85367 18.1301 9.279C17.9101 9.697 17.5947 10.0233 17.1841 10.258C16.7734 10.4927 16.2931 10.61 15.7431 10.61ZM15.7321 9.675C16.2161 9.675 16.6084 9.50633 16.9091 9.169C17.2171 8.83167 17.3711 8.38067 17.3711 7.816C17.3711 7.23667 17.2207 6.77833 16.9201 6.441C16.6267 6.10367 16.2307 5.935 15.7321 5.935C15.2334 5.935 14.8337 6.089 14.5331 6.397C14.2324 6.69767 14.0821 7.11933 14.0821 7.662V7.959C14.0821 8.465 14.2324 8.87933 14.5331 9.202C14.8411 9.51733 15.2407 9.675 15.7321 9.675ZM23.0942 5.077C23.7248 5.209 24.2345 5.52067 24.6232 6.012C25.0118 6.496 25.2062 7.09733 25.2062 7.816C25.2062 8.37333 25.0815 8.86467 24.8322 9.29C24.5902 9.71533 24.2565 10.0417 23.8312 10.269C23.4058 10.4963 22.9292 10.61 22.4012 10.61C21.8732 10.61 21.3965 10.4963 20.9712 10.269C20.5458 10.0417 20.2122 9.71533 19.9702 9.29C19.7282 8.86467 19.6072 8.37333 19.6072 7.816C19.6072 7.30267 19.7062 6.848 19.9042 6.452C20.1095 6.04867 20.3882 5.726 20.7402 5.484C21.0995 5.242 21.5065 5.09167 21.9612 5.033V4.131C21.9612 3.96233 21.9245 3.82667 21.8512 3.724C21.7852 3.614 21.6788 3.48933 21.5322 3.35C21.3268 3.15933 21.1728 2.96867 21.0702 2.778C20.9675 2.58733 20.9272 2.31233 20.9492 1.953H22.0602C22.0528 2.16567 22.0895 2.338 22.1702 2.47C22.2508 2.602 22.3755 2.74867 22.5442 2.91C22.7202 3.07867 22.8558 3.24367 22.9512 3.405C23.0465 3.559 23.0942 3.77167 23.0942 4.043V5.077ZM22.4012 9.675C22.8998 9.675 23.3105 9.50633 23.6332 9.169C23.9558 8.83167 24.1172 8.38067 24.1172 7.816C24.1172 7.244 23.9558 6.78933 23.6332 6.452C23.3105 6.10733 22.8998 5.935 22.4012 5.935C21.9025 5.935 21.4918 6.10367 21.1692 6.441C20.8465 6.77833 20.6852 7.23667 20.6852 7.816C20.6852 8.388 20.8465 8.84267 21.1692 9.18C21.4918 9.51 21.9025 9.675 22.4012 9.675ZM29.2575 5.11C29.2502 5.35933 29.3125 5.572 29.4445 5.748C29.5765 5.924 29.7818 6.133 30.0605 6.375C30.3025 6.58033 30.4968 6.76733 30.6435 6.936C30.7975 7.10467 30.9295 7.31367 31.0395 7.563C31.1495 7.805 31.2045 8.091 31.2045 8.421C31.2045 8.87567 31.0908 9.268 30.8635 9.598C30.6435 9.928 30.3428 10.181 29.9615 10.357C29.5875 10.5257 29.1732 10.61 28.7185 10.61C28.2565 10.61 27.8348 10.5147 27.4535 10.324C27.0795 10.1333 26.7825 9.862 26.5625 9.51C26.3498 9.15067 26.2435 8.74 26.2435 8.278C26.2435 8.058 26.2655 7.83433 26.3095 7.607L27.3765 7.64C27.3398 7.84533 27.3215 8.02867 27.3215 8.19C27.3215 8.65933 27.4498 9.02967 27.7065 9.301C27.9632 9.565 28.3005 9.697 28.7185 9.697C29.1365 9.697 29.4738 9.58333 29.7305 9.356C29.9945 9.12867 30.1265 8.80967 30.1265 8.399C30.1265 8.09833 30.0495 7.849 29.8955 7.651C29.7488 7.453 29.5215 7.22567 29.2135 6.969C28.9788 6.771 28.7882 6.59867 28.6415 6.452C28.5022 6.298 28.3848 6.111 28.2895 5.891C28.2015 5.66367 28.1648 5.40333 28.1795 5.11H29.2575ZM34.9997 13.415C34.4643 13.415 33.995 13.3087 33.5917 13.096C33.1883 12.8833 32.8767 12.5863 32.6567 12.205C32.4367 11.8237 32.3267 11.391 32.3267 10.907C32.3267 10.599 32.3707 10.2873 32.4587 9.972L33.5147 10.027C33.4487 10.291 33.4157 10.5477 33.4157 10.797C33.4157 11.3103 33.5587 11.7173 33.8447 12.018C34.138 12.3187 34.523 12.469 34.9997 12.469C35.4763 12.469 35.8577 12.315 36.1437 12.007C36.4297 11.7063 36.5727 11.2773 36.5727 10.72V5.935L34.0427 6.452C34.2847 6.474 34.501 6.58767 34.6917 6.793C34.8897 6.99833 34.9887 7.277 34.9887 7.629C34.9887 8.069 34.8347 8.41367 34.5267 8.663C34.2187 8.905 33.8227 9.026 33.3387 9.026C32.9573 9.026 32.609 8.95267 32.2937 8.806L32.5027 8.124C32.7227 8.234 32.961 8.289 33.2177 8.289C33.445 8.289 33.6357 8.23033 33.7897 8.113C33.951 7.98833 34.0317 7.805 34.0317 7.563C34.0317 7.30633 33.951 7.11567 33.7897 6.991C33.6283 6.859 33.4267 6.793 33.1847 6.793C33.0527 6.793 32.9207 6.80767 32.7887 6.837L32.7447 5.902L36.5727 5.11H37.6507V10.731C37.6507 11.5523 37.4123 12.205 36.9357 12.689C36.459 13.173 35.8137 13.415 34.9997 13.415ZM41.5179 13.415C40.9899 13.415 40.5242 13.3087 40.1209 13.096C39.7175 12.8833 39.4059 12.5863 39.1859 12.205C38.9659 11.8237 38.8559 11.391 38.8559 10.907C38.8559 10.599 38.8999 10.2873 38.9879 9.972L40.0439 10.027C39.9779 10.291 39.9449 10.5403 39.9449 10.775C39.9449 11.2957 40.0879 11.7063 40.3739 12.007C40.6672 12.315 41.0522 12.469 41.5289 12.469C42.0055 12.469 42.3869 12.315 42.6729 12.007C42.9662 11.7063 43.1129 11.2773 43.1129 10.72V7.53C43.1055 6.99467 42.9589 6.59133 42.6729 6.32C42.3942 6.04867 42.0422 5.913 41.6169 5.913C41.1695 5.913 40.8139 6.045 40.5499 6.309C40.2932 6.573 40.1649 6.93233 40.1649 7.387C40.1649 7.52633 40.1832 7.71333 40.2199 7.948L39.1309 7.992C39.0869 7.75 39.0649 7.52267 39.0649 7.31C39.0649 6.848 39.1749 6.441 39.3949 6.089C39.6149 5.737 39.9155 5.46567 40.2969 5.275C40.6855 5.08433 41.1182 4.989 41.5949 4.989C42.0789 4.989 42.5189 5.09167 42.9149 5.297C43.3109 5.50233 43.6225 5.79933 43.8499 6.188C44.0772 6.56933 44.1909 7.02033 44.1909 7.541V10.731C44.1909 11.5597 43.9489 12.2123 43.4649 12.689C42.9882 13.173 42.3392 13.415 41.5179 13.415ZM48.9506 5.077C49.5813 5.209 50.0909 5.52067 50.4796 6.012C50.8683 6.496 51.0626 7.09733 51.0626 7.816C51.0626 8.37333 50.9379 8.86467 50.6886 9.29C50.4466 9.71533 50.1129 10.0417 49.6876 10.269C49.2623 10.4963 48.7856 10.61 48.2576 10.61C47.7296 10.61 47.2529 10.4963 46.8276 10.269C46.4023 10.0417 46.0686 9.71533 45.8266 9.29C45.5846 8.86467 45.4636 8.37333 45.4636 7.816C45.4636 7.30267 45.5626 6.848 45.7606 6.452C45.9659 6.04867 46.2446 5.726 46.5966 5.484C46.9559 5.242 47.3629 5.09167 47.8176 5.033V4.131C47.8176 3.96233 47.7809 3.82667 47.7076 3.724C47.6416 3.614 47.5353 3.48933 47.3886 3.35C47.1833 3.15933 47.0293 2.96867 46.9266 2.778C46.8239 2.58733 46.7836 2.31233 46.8056 1.953H47.9166C47.9093 2.16567 47.9459 2.338 48.0266 2.47C48.1073 2.602 48.2319 2.74867 48.4006 2.91C48.5766 3.07867 48.7123 3.24367 48.8076 3.405C48.9029 3.559 48.9506 3.77167 48.9506 4.043V5.077ZM48.2576 9.675C48.7563 9.675 49.1669 9.50633 49.4896 9.169C49.8123 8.83167 49.9736 8.38067 49.9736 7.816C49.9736 7.244 49.8123 6.78933 49.4896 6.452C49.1669 6.10733 48.7563 5.935 48.2576 5.935C47.7589 5.935 47.3483 6.10367 47.0256 6.441C46.7029 6.77833 46.5416 7.23667 46.5416 7.816C46.5416 8.388 46.7029 8.84267 47.0256 9.18C47.3483 9.51 47.7589 9.675 48.2576 9.675ZM55.114 5.11C55.1066 5.35933 55.169 5.572 55.301 5.748C55.433 5.924 55.6383 6.133 55.917 6.375C56.159 6.58033 56.3533 6.76733 56.5 6.936C56.654 7.10467 56.786 7.31367 56.896 7.563C57.006 7.805 57.061 8.091 57.061 8.421C57.061 8.87567 56.9473 9.268 56.72 9.598C56.5 9.928 56.1993 10.181 55.818 10.357C55.444 10.5257 55.0296 10.61 54.575 10.61C54.113 10.61 53.6913 10.5147 53.31 10.324C52.936 10.1333 52.639 9.862 52.419 9.51C52.2063 9.15067 52.1 8.74 52.1 8.278C52.1 8.058 52.122 7.83433 52.166 7.607L53.233 7.64C53.1963 7.84533 53.178 8.02867 53.178 8.19C53.178 8.65933 53.3063 9.02967 53.563 9.301C53.8196 9.565 54.157 9.697 54.575 9.697C54.993 9.697 55.3303 9.58333 55.587 9.356C55.851 9.12867 55.983 8.80967 55.983 8.399C55.983 8.09833 55.906 7.849 55.752 7.651C55.6053 7.453 55.378 7.22567 55.07 6.969C54.8353 6.771 54.6446 6.59867 54.498 6.452C54.3586 6.298 54.2413 6.111 54.146 5.891C54.058 5.66367 54.0213 5.40333 54.036 5.11H55.114Z" fill="#FF3B30"/>
<path d="M67.687 12.5H62.429C62.4363 11.862 62.5903 11.3047 62.891 10.828C63.1917 10.3513 63.6023 9.937 64.123 9.585C64.3723 9.40167 64.6327 9.22567 64.904 9.057C65.1753 8.881 65.4247 8.694 65.652 8.496C65.8793 8.298 66.0663 8.08533 66.213 7.858C66.3597 7.62333 66.4367 7.35567 66.444 7.055C66.444 6.91567 66.4257 6.769 66.389 6.615C66.3597 6.45367 66.2973 6.307 66.202 6.175C66.1067 6.03567 65.9747 5.922 65.806 5.834C65.6373 5.73867 65.4173 5.691 65.146 5.691C64.8967 5.691 64.6877 5.74233 64.519 5.845C64.3577 5.94033 64.2257 6.076 64.123 6.252C64.0277 6.42067 63.9543 6.62233 63.903 6.857C63.859 7.09167 63.8333 7.34467 63.826 7.616H62.572C62.572 7.19067 62.627 6.79833 62.737 6.439C62.8543 6.07233 63.0267 5.757 63.254 5.493C63.4813 5.229 63.7563 5.02367 64.079 4.877C64.409 4.723 64.7903 4.646 65.223 4.646C65.6923 4.646 66.0847 4.723 66.4 4.877C66.7153 5.031 66.9683 5.22533 67.159 5.46C67.357 5.69467 67.4963 5.95133 67.577 6.23C67.6577 6.50133 67.698 6.76167 67.698 7.011C67.698 7.319 67.6503 7.59767 67.555 7.847C67.4597 8.09633 67.3313 8.32733 67.17 8.54C67.0087 8.74533 66.8253 8.936 66.62 9.112C66.4147 9.288 66.202 9.453 65.982 9.607C65.762 9.761 65.542 9.90767 65.322 10.047C65.102 10.1863 64.8967 10.3257 64.706 10.465C64.5227 10.6043 64.3613 10.751 64.222 10.905C64.0827 11.0517 63.9873 11.2093 63.936 11.378H67.687V12.5ZM68.8713 11.015H70.4003V12.5C70.393 12.9547 70.2536 13.336 69.9823 13.644C69.711 13.952 69.3553 14.15 68.9153 14.238V13.567C69.1573 13.5083 69.337 13.3727 69.4543 13.16C69.579 12.9547 69.6376 12.7347 69.6303 12.5H68.8713V11.015ZM71.7568 6.076C72.0208 6.076 72.2775 6.054 72.5268 6.01C72.7762 5.966 72.9998 5.89267 73.1978 5.79C73.4032 5.68733 73.5755 5.55533 73.7148 5.394C73.8615 5.23267 73.9568 5.03467 74.0008 4.8H75.0238V12.5H73.6488V7.066H71.7568V6.076ZM77.6711 4.8H82.9401V5.845C82.5368 6.29967 82.1701 6.77267 81.8401 7.264C81.5101 7.748 81.2205 8.265 80.9711 8.815C80.7291 9.35767 80.5311 9.93333 80.3771 10.542C80.2231 11.1507 80.1205 11.8033 80.0691 12.5H78.6941C78.7381 11.8913 78.8408 11.29 79.0021 10.696C79.1708 10.102 79.3835 9.52633 79.6401 8.969C79.9041 8.41167 80.2085 7.87633 80.5531 7.363C80.8978 6.84967 81.2681 6.36933 81.6641 5.922H77.6711V4.8ZM87.7434 6.747C87.7141 6.43167 87.6004 6.17867 87.4024 5.988C87.2118 5.79 86.9514 5.691 86.6214 5.691C86.3941 5.691 86.1961 5.735 86.0274 5.823C85.8661 5.90367 85.7268 6.01367 85.6094 6.153C85.4994 6.29233 85.4078 6.45367 85.3344 6.637C85.2684 6.813 85.2134 7 85.1694 7.198C85.1254 7.396 85.0924 7.594 85.0704 7.792C85.0558 7.98267 85.0411 8.16233 85.0264 8.331L85.0484 8.353C85.2171 8.045 85.4481 7.81767 85.7414 7.671C86.0421 7.517 86.3648 7.44 86.7094 7.44C87.0908 7.44 87.4318 7.506 87.7324 7.638C88.0331 7.77 88.2861 7.95333 88.4914 8.188C88.7041 8.41533 88.8654 8.68667 88.9754 9.002C89.0854 9.31733 89.1404 9.65833 89.1404 10.025C89.1404 10.399 89.0781 10.7473 88.9534 11.07C88.8361 11.3853 88.6638 11.664 88.4364 11.906C88.2091 12.1407 87.9378 12.324 87.6224 12.456C87.3071 12.588 86.9588 12.654 86.5774 12.654C86.0128 12.654 85.5471 12.5513 85.1804 12.346C84.8211 12.1333 84.5351 11.8473 84.3224 11.488C84.1171 11.1213 83.9741 10.696 83.8934 10.212C83.8128 9.72067 83.7724 9.19267 83.7724 8.628C83.7724 8.166 83.8201 7.70033 83.9154 7.231C84.0181 6.76167 84.1831 6.33633 84.4104 5.955C84.6378 5.56633 84.9348 5.251 85.3014 5.009C85.6754 4.767 86.1338 4.646 86.6764 4.646C86.9844 4.646 87.2741 4.69733 87.5454 4.8C87.8168 4.90267 88.0551 5.04567 88.2604 5.229C88.4731 5.41233 88.6454 5.63233 88.7774 5.889C88.9094 6.14567 88.9828 6.43167 88.9974 6.747H87.7434ZM86.5334 11.609C86.7608 11.609 86.9588 11.565 87.1274 11.477C87.2961 11.3817 87.4354 11.2607 87.5454 11.114C87.6628 10.9673 87.7471 10.7987 87.7984 10.608C87.8571 10.41 87.8864 10.2083 87.8864 10.003C87.8864 9.79767 87.8571 9.59967 87.7984 9.409C87.7471 9.21833 87.6628 9.05333 87.5454 8.914C87.4354 8.76733 87.2961 8.65 87.1274 8.562C86.9588 8.474 86.7608 8.43 86.5334 8.43C86.3061 8.43 86.1044 8.474 85.9284 8.562C85.7598 8.64267 85.6168 8.75633 85.4994 8.903C85.3821 9.04233 85.2941 9.20733 85.2354 9.398C85.1768 9.58867 85.1474 9.79033 85.1474 10.003C85.1474 10.2157 85.1768 10.4173 85.2354 10.608C85.2941 10.7987 85.3821 10.971 85.4994 11.125C85.6168 11.2717 85.7598 11.389 85.9284 11.477C86.1044 11.565 86.3061 11.609 86.5334 11.609ZM96.7523 5.658C96.6423 5.658 96.5066 5.67267 96.3453 5.702V8.573H95.7073V5.878C95.2673 6.10533 94.9519 6.44633 94.7613 6.901C94.5779 7.34833 94.4863 7.90567 94.4863 8.573C94.4863 9.11567 94.5853 9.60333 94.7833 10.036C94.9813 10.4613 95.2673 10.7987 95.6413 11.048C96.0153 11.2973 96.4626 11.422 96.9833 11.422H99.5793V12.5H93.6393V11.466H94.7173V11.422C94.3726 11.2313 94.0829 10.9673 93.8483 10.63C93.6209 10.2927 93.4523 9.926 93.3423 9.53C93.2323 9.12667 93.1773 8.73433 93.1773 8.353C93.1773 7.803 93.2799 7.286 93.4853 6.802C93.6906 6.31067 93.9839 5.889 94.3653 5.537C94.7539 5.185 95.2013 4.93933 95.7073 4.8V3.59H96.3453V4.668C96.5066 4.65333 96.6423 4.646 96.7523 4.646C96.8403 4.646 96.9796 4.65333 97.1703 4.668V3.59H97.8083V4.8C98.3289 4.94667 98.7799 5.207 99.1613 5.581C99.5499 5.94767 99.8433 6.39133 100.041 6.912C100.247 7.43267 100.349 7.98633 100.349 8.573H99.0403C99.0403 7.90567 98.9449 7.34833 98.7543 6.901C98.5636 6.44633 98.2483 6.10533 97.8083 5.878V8.573H97.1703V5.702C97.0383 5.67267 96.8989 5.658 96.7523 5.658Z" fill="#FF3B30"/>
<path d="M131.498 8.00007C131.498 12.1422 128.141 15.4999 123.999 15.4999C119.858 15.4999 116.5 12.1422 116.5 8.00007C116.5 3.85799 119.858 0.500244 123.999 0.500244C128.141 0.500244 131.498 3.85799 131.498 8.00007Z" fill="white" stroke="#E9E9F0"/>
<path fill-rule="evenodd" clip-rule="evenodd" d="M131.93 6.95557H125.044V0.0677221C124.352 -0.022574 123.65 -0.022574 122.958 0.0677221V6.95557H116.07C115.98 7.64825 115.98 8.34971 116.07 9.04238H122.958V15.9302C123.65 16.0205 124.352 16.0205 125.044 15.9302V9.04238H131.932C132.022 8.34971 132.022 7.64825 131.932 6.95557H131.93ZM120.871 3.82564V2.78223H119.828V3.82564H118.785V4.86904H119.828V5.91244H120.871V4.86904H121.915V3.82564H120.871ZM128.174 2.78223V3.82564H129.221V4.86904H128.178V5.91244H127.135V4.86904H126.091V3.82564H127.135V2.78223H128.174ZM120.871 11.1324V10.089H119.828V11.1324H118.785V12.1758H119.828V13.2192H120.871V12.1758H121.915V11.1324H120.871ZM128.174 10.089V11.1324H129.221V12.1758H128.178V13.2192H127.135V12.1758H126.091V11.1324H127.135V10.089H128.174Z" fill="#FF3B30"/>
<path d="M147.295 8.94141C147.295 8.20312 147.182 7.6543 146.955 7.29492C146.729 6.93555 146.406 6.75586 145.988 6.75586C145.668 6.75586 145.418 6.88672 145.238 7.14844C145.059 7.41016 144.969 7.75586 144.969 8.18555V10.3535H143.902V8.18555C143.902 7.73633 143.814 7.38672 143.639 7.13672C143.463 6.88281 143.219 6.75586 142.906 6.75586C142.504 6.75586 142.186 6.93359 141.951 7.28906C141.721 7.64453 141.605 8.19141 141.605 8.92969C141.605 9.47266 141.682 10.0059 141.834 10.5293C141.99 11.0527 142.211 11.543 142.496 12H141.383C141.09 11.5391 140.875 11.0254 140.738 10.459C140.605 9.88867 140.539 9.15039 140.539 8.24414C140.539 6.91211 140.812 5.86914 141.359 5.11523C141.906 4.36133 142.746 3.86914 143.879 3.63867L144.98 3.41016C145.156 3.37109 145.303 3.31641 145.42 3.24609C145.541 3.17578 145.623 3.09375 145.666 3H146.756C146.721 3.25781 146.637 3.4707 146.504 3.63867C146.375 3.80273 146.188 3.93945 145.941 4.04883C145.695 4.1582 145.371 4.25195 144.969 4.33008L143.996 4.52344C143.332 4.65234 142.781 4.90039 142.344 5.26758C141.906 5.63477 141.605 6.16602 141.441 6.86133H141.477C141.613 6.53711 141.807 6.28906 142.057 6.11719C142.307 5.94141 142.59 5.85352 142.906 5.85352C143.18 5.85352 143.408 5.89648 143.592 5.98242C143.775 6.06836 143.93 6.20117 144.055 6.38086C144.18 6.55664 144.293 6.79297 144.395 7.08984H144.441C144.586 6.67578 144.809 6.36719 145.109 6.16406C145.41 5.95703 145.76 5.85352 146.158 5.85352C146.619 5.85352 147.016 5.98242 147.348 6.24023C147.68 6.49414 147.932 6.84961 148.104 7.30664C148.275 7.76367 148.361 8.29297 148.361 8.89453C148.361 9.50391 148.293 10.0605 148.156 10.5645C148.023 11.0684 147.812 11.5469 147.523 12H146.398C146.699 11.5352 146.924 11.0527 147.072 10.5527C147.221 10.0488 147.295 9.51172 147.295 8.94141ZM149.352 12.082C149.352 11.6719 149.436 11.2773 149.604 10.8984H150.646C150.584 11.0625 150.531 11.2422 150.488 11.4375C150.449 11.6289 150.43 11.8047 150.43 11.9648C150.43 12.5 150.582 12.9141 150.887 13.207C151.195 13.5 151.627 13.6465 152.182 13.6465C152.521 13.6465 152.816 13.5664 153.066 13.4062C153.32 13.2461 153.514 13.0195 153.646 12.7266C153.783 12.4375 153.852 12.0996 153.852 11.7129V8.08594C153.852 7.65625 153.768 7.32227 153.6 7.08398C153.432 6.8418 153.18 6.7207 152.844 6.7207C152.531 6.7207 152.295 6.83984 152.135 7.07812C151.975 7.3125 151.895 7.625 151.895 8.01562V9.05859H150.828V8.03906C150.828 7.68359 150.732 7.39453 150.541 7.17188C150.35 6.94922 150.08 6.83789 149.732 6.83789H149.158V5.91797H149.662C149.951 5.91797 150.191 5.94336 150.383 5.99414C150.574 6.04492 150.74 6.13672 150.881 6.26953C151.021 6.40234 151.145 6.5918 151.25 6.83789H151.297C151.453 6.48633 151.67 6.23438 151.947 6.08203C152.229 5.92969 152.574 5.85352 152.984 5.85352C153.348 5.85352 153.672 5.93555 153.957 6.09961C154.246 6.25977 154.475 6.50781 154.643 6.84375C154.811 7.17578 154.895 7.58984 154.895 8.08594V11.7129C154.895 12.2793 154.787 12.7754 154.572 13.2012C154.357 13.6309 154.045 13.9609 153.635 14.1914C153.229 14.4258 152.744 14.543 152.182 14.543C151.607 14.543 151.105 14.4395 150.676 14.2324C150.25 14.0254 149.922 13.7363 149.691 13.3652C149.465 12.9941 149.352 12.5664 149.352 12.082ZM156.248 9.29883V3H157.291V9.24023C157.291 9.63477 157.354 9.98242 157.479 10.2832C157.607 10.584 157.797 10.8203 158.047 10.9922C158.297 11.1602 158.602 11.2441 158.961 11.2441C159.316 11.2441 159.619 11.168 159.869 11.0156C160.119 10.8594 160.305 10.6523 160.426 10.3945C160.551 10.1328 160.613 9.84766 160.613 9.53906C160.613 9.20703 160.562 8.92773 160.461 8.70117C160.359 8.4707 160.215 8.23828 160.027 8.00391L159.852 7.79297C159.684 7.59766 159.549 7.42773 159.447 7.2832C159.35 7.13867 159.264 6.96094 159.189 6.75C159.115 6.53516 159.074 6.28516 159.066 6H160.145C160.156 6.20703 160.195 6.39258 160.262 6.55664C160.328 6.7207 160.404 6.86133 160.49 6.97852C160.58 7.0957 160.713 7.25781 160.889 7.46484C161.053 7.66016 161.193 7.85352 161.311 8.04492C161.428 8.23242 161.523 8.45898 161.598 8.72461C161.672 8.99023 161.709 9.29883 161.709 9.65039C161.709 10.1035 161.59 10.5215 161.352 10.9043C161.113 11.2832 160.785 11.5859 160.367 11.8125C159.949 12.0352 159.48 12.1465 158.961 12.1465C158.395 12.1465 157.908 12.0332 157.502 11.8066C157.096 11.5801 156.785 11.2539 156.57 10.8281C156.355 10.4023 156.248 9.89258 156.248 9.29883ZM170.762 8.92969C170.762 8.21484 170.652 7.66992 170.434 7.29492C170.215 6.91992 169.893 6.73242 169.467 6.73242C169.1 6.73242 168.811 6.86328 168.6 7.125C168.393 7.38281 168.289 7.74414 168.289 8.20898V8.98828C168.289 9.60156 168.182 10.1465 167.967 10.623C167.756 11.0996 167.439 11.4727 167.018 11.7422C166.596 12.0117 166.084 12.1465 165.482 12.1465C164.893 12.1465 164.387 12.0137 163.965 11.748C163.547 11.4824 163.229 11.1113 163.01 10.6348C162.795 10.1582 162.688 9.60938 162.688 8.98828C162.688 8.39062 162.797 7.85547 163.016 7.38281C163.238 6.90625 163.555 6.5332 163.965 6.26367C164.375 5.99023 164.854 5.85352 165.4 5.85352C165.908 5.85352 166.344 5.94531 166.707 6.12891C167.07 6.30859 167.383 6.625 167.645 7.07812H167.68C167.879 6.63281 168.135 6.31836 168.447 6.13477C168.764 5.94727 169.137 5.85352 169.566 5.85352C170.023 5.85352 170.424 5.97656 170.768 6.22266C171.111 6.46484 171.377 6.81836 171.564 7.2832C171.752 7.74414 171.846 8.29297 171.846 8.92969C171.846 9.53125 171.775 10.082 171.635 10.582C171.498 11.0781 171.283 11.5508 170.99 12H169.865C170.166 11.5312 170.391 11.0469 170.539 10.5469C170.688 10.043 170.762 9.50391 170.762 8.92969ZM167.211 8.98828C167.211 8.30859 167.064 7.76758 166.771 7.36523C166.479 6.95898 166.049 6.75586 165.482 6.75586C165.1 6.75586 164.779 6.85352 164.521 7.04883C164.264 7.24023 164.072 7.50391 163.947 7.83984C163.826 8.17578 163.766 8.55859 163.766 8.98828C163.766 9.41406 163.828 9.79688 163.953 10.1367C164.078 10.4766 164.27 10.7461 164.527 10.9453C164.785 11.1445 165.107 11.2441 165.494 11.2441C165.877 11.2441 166.195 11.1445 166.449 10.9453C166.707 10.7422 166.898 10.4707 167.023 10.1309C167.148 9.79102 167.211 9.41016 167.211 8.98828ZM172.812 9.67383C172.812 9.32617 172.873 8.99023 172.994 8.66602H174.049C173.943 8.9668 173.891 9.26172 173.891 9.55078C173.891 9.87109 173.947 10.1602 174.061 10.418C174.174 10.6719 174.346 10.873 174.576 11.0215C174.811 11.1699 175.098 11.2441 175.438 11.2441C175.777 11.2441 176.062 11.1719 176.293 11.0273C176.527 10.8789 176.701 10.6836 176.814 10.4414C176.932 10.1953 176.99 9.92773 176.99 9.63867C176.99 9.34961 176.938 9.09375 176.832 8.87109C176.727 8.64844 176.598 8.45703 176.445 8.29688C176.293 8.13672 176.088 7.94727 175.83 7.72852C175.572 7.50586 175.367 7.31641 175.215 7.16016C175.066 7.00391 174.939 6.81641 174.834 6.59766C174.732 6.37891 174.682 6.13086 174.682 5.85352H175.789C175.816 6.04102 175.875 6.21289 175.965 6.36914C176.059 6.52539 176.164 6.66406 176.281 6.78516C176.398 6.90234 176.561 7.05078 176.768 7.23047C177.049 7.47266 177.275 7.68945 177.447 7.88086C177.619 8.07227 177.766 8.3125 177.887 8.60156C178.008 8.89062 178.068 9.23047 178.068 9.62109C178.068 10.0625 177.965 10.4766 177.758 10.8633C177.551 11.2461 177.248 11.5566 176.85 11.7949C176.455 12.0293 175.984 12.1465 175.438 12.1465C174.871 12.1465 174.391 12.0391 173.996 11.8242C173.602 11.6094 173.305 11.3164 173.105 10.9453C172.91 10.5703 172.812 10.1465 172.812 9.67383ZM179 12.082C179 11.8828 179.02 11.6914 179.059 11.5078C179.102 11.3203 179.162 11.125 179.24 10.9219H180.283C180.221 11.0859 180.17 11.2617 180.131 11.4492C180.096 11.6328 180.078 11.8047 180.078 11.9648C180.078 12.2852 180.148 12.5723 180.289 12.8262C180.43 13.084 180.631 13.2852 180.893 13.4297C181.158 13.5742 181.471 13.6465 181.83 13.6465C182.166 13.6465 182.459 13.5742 182.709 13.4297C182.959 13.2852 183.15 13.0859 183.283 12.832C183.42 12.5781 183.488 12.293 183.488 11.9766C183.488 11.6211 183.424 11.3145 183.295 11.0566C183.17 10.7988 182.994 10.6035 182.768 10.4707C182.541 10.3379 182.277 10.2715 181.977 10.2715H181.396V9.38672H181.977C182.379 9.38672 182.686 9.26758 182.896 9.0293C183.107 8.79102 183.213 8.48828 183.213 8.12109C183.213 7.88281 183.164 7.66016 183.066 7.45312C182.969 7.24609 182.816 7.07812 182.609 6.94922C182.402 6.82031 182.143 6.75586 181.83 6.75586C181.33 6.75586 180.957 6.89062 180.711 7.16016C180.465 7.42578 180.342 7.77148 180.342 8.19727C180.342 8.37695 180.357 8.52148 180.389 8.63086H179.322C179.283 8.49414 179.264 8.33398 179.264 8.15039C179.264 7.73242 179.365 7.34961 179.568 7.00195C179.771 6.65039 180.066 6.37109 180.453 6.16406C180.844 5.95703 181.303 5.85352 181.83 5.85352C182.346 5.85352 182.789 5.95703 183.16 6.16406C183.535 6.36719 183.818 6.63281 184.01 6.96094C184.205 7.28906 184.303 7.63672 184.303 8.00391C184.303 8.47266 184.203 8.85938 184.004 9.16406C183.805 9.46484 183.527 9.67773 183.172 9.80273V9.84961C183.578 9.98633 183.912 10.2305 184.174 10.582C184.436 10.9297 184.566 11.4023 184.566 12C184.566 12.4492 184.455 12.8672 184.232 13.2539C184.014 13.6445 183.695 13.957 183.277 14.1914C182.863 14.4258 182.381 14.543 181.83 14.543C181.264 14.543 180.766 14.4316 180.336 14.209C179.906 13.9902 179.576 13.6934 179.346 13.3184C179.115 12.9434 179 12.5312 179 12.082ZM189.846 8.97656C189.846 8.32422 189.711 7.79102 189.441 7.37695C189.176 6.96289 188.768 6.75586 188.217 6.75586C187.662 6.75586 187.248 6.96289 186.975 7.37695C186.705 7.79102 186.57 8.32422 186.57 8.97656C186.57 9.5625 186.635 10.0859 186.764 10.5469C186.893 11.0039 187.084 11.4883 187.338 12H186.271C186.018 11.543 185.824 11.0781 185.691 10.6055C185.559 10.1289 185.492 9.58594 185.492 8.97656C185.492 8.32812 185.604 7.76953 185.826 7.30078C186.053 6.83203 186.371 6.47461 186.781 6.22852C187.191 5.97852 187.67 5.85352 188.217 5.85352C188.764 5.85352 189.242 5.97852 189.652 6.22852C190.062 6.47461 190.379 6.83203 190.602 7.30078C190.828 7.76953 190.941 8.32812 190.941 8.97656C190.941 9.58203 190.873 10.1211 190.736 10.5938C190.6 11.0664 190.404 11.5352 190.15 12H189.078C189.332 11.5039 189.523 11.0254 189.652 10.5645C189.781 10.0996 189.846 9.57031 189.846 8.97656ZM192.131 9.29883V3H193.174V9.24023C193.174 9.63477 193.236 9.98242 193.361 10.2832C193.49 10.584 193.68 10.8203 193.93 10.9922C194.18 11.1602 194.484 11.2441 194.844 11.2441C195.199 11.2441 195.502 11.168 195.752 11.0156C196.002 10.8594 196.188 10.6523 196.309 10.3945C196.434 10.1328 196.496 9.84766 196.496 9.53906C196.496 9.20703 196.445 8.92773 196.344 8.70117C196.242 8.4707 196.098 8.23828 195.91 8.00391L195.734 7.79297C195.566 7.59766 195.432 7.42773 195.33 7.2832C195.232 7.13867 195.146 6.96094 195.072 6.75C194.998 6.53516 194.957 6.28516 194.949 6H196.027C196.039 6.20703 196.078 6.39258 196.145 6.55664C196.211 6.7207 196.287 6.86133 196.373 6.97852C196.463 7.0957 196.596 7.25781 196.771 7.46484C196.936 7.66016 197.076 7.85352 197.193 8.04492C197.311 8.23242 197.406 8.45898 197.48 8.72461C197.555 8.99023 197.592 9.29883 197.592 9.65039C197.592 10.1035 197.473 10.5215 197.234 10.9043C196.996 11.2832 196.668 11.5859 196.25 11.8125C195.832 12.0352 195.363 12.1465 194.844 12.1465C194.277 12.1465 193.791 12.0332 193.385 11.8066C192.979 11.5801 192.668 11.2539 192.453 10.8281C192.238 10.4023 192.131 9.89258 192.131 9.29883ZM201.863 9.67383C201.863 9.32617 201.924 8.99023 202.045 8.66602H203.1C202.994 8.9668 202.941 9.26172 202.941 9.55078C202.941 9.87109 202.998 10.1602 203.111 10.418C203.225 10.6719 203.396 10.873 203.627 11.0215C203.861 11.1699 204.148 11.2441 204.488 11.2441C204.828 11.2441 205.113 11.1719 205.344 11.0273C205.578 10.8789 205.752 10.6836 205.865 10.4414C205.982 10.1953 206.041 9.92773 206.041 9.63867C206.041 9.34961 205.988 9.09375 205.883 8.87109C205.777 8.64844 205.648 8.45703 205.496 8.29688C205.344 8.13672 205.139 7.94727 204.881 7.72852C204.623 7.50586 204.418 7.31641 204.266 7.16016C204.117 7.00391 203.99 6.81641 203.885 6.59766C203.783 6.37891 203.732 6.13086 203.732 5.85352H204.84C204.867 6.04102 204.926 6.21289 205.016 6.36914C205.109 6.52539 205.215 6.66406 205.332 6.78516C205.449 6.90234 205.611 7.05078 205.818 7.23047C206.1 7.47266 206.326 7.68945 206.498 7.88086C206.67 8.07227 206.816 8.3125 206.938 8.60156C207.059 8.89062 207.119 9.23047 207.119 9.62109C207.119 10.0625 207.016 10.4766 206.809 10.8633C206.602 11.2461 206.299 11.5566 205.9 11.7949C205.506 12.0293 205.035 12.1465 204.488 12.1465C203.922 12.1465 203.441 12.0391 203.047 11.8242C202.652 11.6094 202.355 11.3164 202.156 10.9453C201.961 10.5703 201.863 10.1465 201.863 9.67383ZM208.051 12.082C208.051 11.8828 208.07 11.6914 208.109 11.5078C208.152 11.3203 208.213 11.125 208.291 10.9219H209.334C209.271 11.0859 209.221 11.2617 209.182 11.4492C209.146 11.6328 209.129 11.8047 209.129 11.9648C209.129 12.2852 209.199 12.5723 209.34 12.8262C209.48 13.084 209.682 13.2852 209.943 13.4297C210.209 13.5742 210.521 13.6465 210.881 13.6465C211.217 13.6465 211.51 13.5742 211.76 13.4297C212.01 13.2852 212.201 13.0859 212.334 12.832C212.471 12.5781 212.539 12.293 212.539 11.9766C212.539 11.6211 212.475 11.3145 212.346 11.0566C212.221 10.7988 212.045 10.6035 211.818 10.4707C211.592 10.3379 211.328 10.2715 211.027 10.2715H210.447V9.38672H211.027C211.43 9.38672 211.736 9.26758 211.947 9.0293C212.158 8.79102 212.264 8.48828 212.264 8.12109C212.264 7.88281 212.215 7.66016 212.117 7.45312C212.02 7.24609 211.867 7.07812 211.66 6.94922C211.453 6.82031 211.193 6.75586 210.881 6.75586C210.381 6.75586 210.008 6.89062 209.762 7.16016C209.516 7.42578 209.393 7.77148 209.393 8.19727C209.393 8.37695 209.408 8.52148 209.439 8.63086H208.373C208.334 8.49414 208.314 8.33398 208.314 8.15039C208.314 7.73242 208.416 7.34961 208.619 7.00195C208.822 6.65039 209.117 6.37109 209.504 6.16406C209.895 5.95703 210.354 5.85352 210.881 5.85352C211.396 5.85352 211.84 5.95703 212.211 6.16406C212.586 6.36719 212.869 6.63281 213.061 6.96094C213.256 7.28906 213.354 7.63672 213.354 8.00391C213.354 8.47266 213.254 8.85938 213.055 9.16406C212.855 9.46484 212.578 9.67773 212.223 9.80273V9.84961C212.629 9.98633 212.963 10.2305 213.225 10.582C213.486 10.9297 213.617 11.4023 213.617 12C213.617 12.4492 213.506 12.8672 213.283 13.2539C213.064 13.6445 212.746 13.957 212.328 14.1914C211.914 14.4258 211.432 14.543 210.881 14.543C210.314 14.543 209.816 14.4316 209.387 14.209C208.957 13.9902 208.627 13.6934 208.396 13.3184C208.166 12.9434 208.051 12.5312 208.051 12.082ZM214.543 10.2363C214.543 9.44336 214.664 8.73633 214.906 8.11523C215.152 7.49023 215.498 6.98633 215.943 6.60352C216.393 6.2207 216.914 5.98828 217.508 5.90625H217.59C217.559 5.73047 217.539 5.55078 217.531 5.36719C217.523 5.18359 217.52 4.95508 217.52 4.68164H218.516C218.516 4.95508 218.512 5.18359 218.504 5.36719C218.5 5.55078 218.484 5.73047 218.457 5.90625H218.527C219.125 5.98438 219.646 6.21484 220.092 6.59766C220.541 6.97656 220.887 7.47852 221.129 8.10352C221.371 8.72852 221.492 9.43945 221.492 10.2363C221.492 11.0996 221.348 11.8555 221.059 12.5039C220.773 13.1562 220.369 13.6582 219.846 14.0098C219.322 14.3652 218.715 14.543 218.023 14.543C217.324 14.543 216.711 14.3652 216.184 14.0098C215.66 13.6582 215.256 13.1562 214.971 12.5039C214.686 11.8555 214.543 11.0996 214.543 10.2363ZM220.408 10.2363C220.408 9.63477 220.336 9.08789 220.191 8.5957C220.047 8.09961 219.834 7.68945 219.553 7.36523C219.271 7.04102 218.93 6.83398 218.527 6.74414L218.404 6.68555C218.443 6.92773 218.475 7.19141 218.498 7.47656C218.525 7.75781 218.539 8.00977 218.539 8.23242V10.3535H217.508V8.23242C217.508 7.99414 217.52 7.73242 217.543 7.44727C217.566 7.16211 217.598 6.9082 217.637 6.68555L217.508 6.73242C217.102 6.82227 216.756 7.03125 216.471 7.35938C216.189 7.6875 215.977 8.09961 215.832 8.5957C215.691 9.0918 215.621 9.63867 215.621 10.2363C215.621 10.9043 215.711 11.4941 215.891 12.0059C216.074 12.5176 216.346 12.916 216.705 13.2012C217.064 13.4902 217.504 13.6348 218.023 13.6348C218.547 13.6348 218.986 13.4922 219.342 13.207C219.697 12.9219 219.963 12.5234 220.139 12.0117C220.318 11.5039 220.408 10.9121 220.408 10.2363ZM229.256 8.94141C229.256 8.20312 229.143 7.6543 228.916 7.29492C228.689 6.93555 228.367 6.75586 227.949 6.75586C227.629 6.75586 227.379 6.88672 227.199 7.14844C227.02 7.41016 226.93 7.75586 226.93 8.18555V10.3535H225.857V8.18555C225.857 7.73633 225.77 7.38672 225.594 7.13672C225.418 6.88281 225.174 6.75586 224.861 6.75586C224.443 6.75586 224.123 6.9375 223.9 7.30078C223.678 7.66016 223.566 8.20312 223.566 8.92969C223.566 9.47266 223.643 10.0059 223.795 10.5293C223.951 11.0527 224.172 11.543 224.457 12H223.379C223.09 11.5469 222.871 11.0625 222.723 10.5469C222.574 10.0312 222.5 9.4707 222.5 8.86523C222.5 8.24805 222.586 7.71289 222.758 7.25977C222.93 6.80664 223.18 6.45898 223.508 6.2168C223.836 5.97461 224.232 5.85352 224.697 5.85352C225.119 5.85352 225.465 5.95117 225.734 6.14648C226.004 6.3418 226.209 6.65234 226.35 7.07812H226.402C226.547 6.66406 226.768 6.35742 227.064 6.1582C227.361 5.95508 227.711 5.85352 228.113 5.85352C228.578 5.85352 228.977 5.98242 229.309 6.24023C229.641 6.49414 229.893 6.84961 230.064 7.30664C230.236 7.76367 230.322 8.29297 230.322 8.89453C230.322 9.50391 230.25 10.0645 230.105 10.5762C229.965 11.0879 229.746 11.5625 229.449 12H228.354C228.658 11.5352 228.885 11.0527 229.033 10.5527C229.182 10.0488 229.256 9.51172 229.256 8.94141ZM231.857 10.7227H233.082V12H231.857V10.7227Z" fill="#6F7383"/>
</svg>
