<svg width="14" height="14" viewBox="0 0 14 14" fill="none" xmlns="http://www.w3.org/2000/svg">
<path fill-rule="evenodd" clip-rule="evenodd" d="M7.68574 1.1679C7.51267 1.29346 7.3477 1.43458 7.19095 1.5894L7.0626 1.72088L7 1.78989L6.9374 1.72088L6.80905 1.5894C6.6523 1.43458 6.48733 1.29346 6.31426 1.1679C5.73288 0.746143 5.06008 0.5 4.3 0.5C1.58473 0.5 0 2.87655 0 5.304C0 7.67851 1.19139 9.74058 3.13701 11.4002C4.50533 12.5673 6.2954 13.5 7 13.5C7.705 13.5 9.49499 12.5674 10.8633 11.4002C12.8088 9.74063 14 7.67852 14 5.304C14 2.87655 12.4153 0.5 9.7 0.5C8.93992 0.5 8.26711 0.746144 7.68574 1.1679ZM5.67538 2.71857C5.23895 2.2911 4.78989 2.1 4.3 2.1C2.75142 2.1 1.6 3.44771 1.6 5.304C1.6 7.08759 2.48098 8.73759 4.17536 10.1829C4.76665 10.6872 5.46051 11.1489 6.07374 11.4778C6.37967 11.6419 6.64224 11.7605 6.84224 11.8338C6.91231 11.8595 6.96436 11.8758 7.00009 11.886C7.03585 11.8758 7.08795 11.8595 7.1581 11.8338C7.35812 11.7605 7.62069 11.6419 7.92662 11.4778C8.53983 11.1489 9.23365 10.6873 9.82495 10.1829C11.5191 8.73772 12.4 7.08768 12.4 5.304C12.4 3.44771 11.2486 2.1 9.7 2.1C9.21011 2.1 8.76105 2.29109 8.32462 2.71857L8.228 2.81755L7 4.17143L5.77199 2.81755L5.67538 2.71857Z" fill="#6F7383"/>
</svg>
