<svg width="14" height="14" viewBox="0 0 14 14" fill="none" xmlns="http://www.w3.org/2000/svg">
<path fill-rule="evenodd" clip-rule="evenodd" d="M7.68574 1.1679C7.51267 1.29346 7.3477 1.43458 7.19095 1.5894L7.0626 1.72088L7 1.78989L6.9374 1.72088L6.80905 1.5894C6.6523 1.43458 6.48733 1.29346 6.31426 1.1679C5.73288 0.746143 5.06008 0.5 4.3 0.5C1.58473 0.5 0 2.87655 0 5.304C0 7.67851 1.19139 9.74058 3.13701 11.4002C4.50533 12.5673 6.2954 13.5 7 13.5C7.705 13.5 9.49499 12.5674 10.8633 11.4002C12.8088 9.74063 14 7.67852 14 5.304C14 2.87655 12.4153 0.5 9.7 0.5C8.93992 0.5 8.26711 0.746144 7.68574 1.1679Z" fill="#6F7383"/>
</svg>
