<svg width="24" height="24" viewBox="0 0 24 24" fill="none" xmlns="http://www.w3.org/2000/svg">
<path d="M15.5199 8.61917L14.8154 7.84275L15.0668 8.83537C15.0695 8.84275 15.2266 9.48157 15.0668 10.0565C14.7709 9.08107 13.9538 7.28747 11.7959 6.23588L11.3088 6L11.4162 6.50122C11.4214 6.5258 11.8902 8.87715 9.65896 11.0541C9.61706 10.6069 9.44423 10.0295 8.86022 9.67814L8.48048 9.44962L8.45692 9.87224C8.45692 9.88452 8.38098 11.145 7.76555 12.0491C7.32034 12.7002 7.06894 13.3513 7.01394 13.9853C6.9118 15.1572 7.32296 16.8034 9.85799 17.9754L9.91299 18H10.9919L10.9369 17.973C9.34994 17.2138 9.3316 15.8894 9.36565 15.5012C9.39447 15.1351 9.53326 14.7617 9.77943 14.3882C10.0884 13.9189 10.1277 13.2482 10.1304 13.2432L10.1539 12.8108L10.5363 13.0516C10.8191 13.2285 10.9841 13.5037 11.081 13.7396C12.084 12.6339 11.7226 11.4939 11.7043 11.4423L11.5157 10.8649L12.0788 11.1499C13.0949 11.6658 13.5689 12.4889 13.7836 13.0639C13.8491 12.8771 13.8858 12.7027 13.8988 12.6142L13.9748 12.0491L14.3598 12.4889C15.4256 13.7076 15.8315 14.8403 15.5618 15.8599C15.1795 17.3096 13.582 17.9558 13.5139 17.9828L13.4667 18H14.475L14.5221 17.9853C14.6321 17.9435 17.2352 16.9754 17.8664 14.6388C18.3404 12.8771 17.5521 10.8526 15.5199 8.61917Z" fill="#272A37"/>
</svg>
