<svg width="10" height="11" viewBox="0 0 10 11" fill="none" xmlns="http://www.w3.org/2000/svg">
<path d="M8.91433 11V9.32231H5.25111C4.6258 9.32231 4.07804 9.1699 3.60783 8.86508C3.13762 8.56026 2.7745 8.13064 2.51846 7.57621C2.26243 7.02178 2.13442 6.37974 2.13442 5.6501C2.13442 4.85806 2.24889 4.20042 2.47784 3.67719C2.70679 3.15396 3.0773 2.74834 3.58937 2.46032V5.80851H4.48301V2.19391C4.63072 2.16511 4.79074 2.15071 4.96307 2.15071C5.13048 2.15071 5.29788 2.16511 5.46529 2.19391V5.80851H6.35894V2.46032C6.88577 2.74354 7.26366 3.15396 7.49261 3.69159C7.72157 4.22922 7.83604 4.93486 7.83604 5.80851H10C10 4.97326 9.85352 4.20402 9.56056 3.50078C9.2676 2.79754 8.84663 2.20231 8.29764 1.71508C7.74865 1.22785 7.10241 0.890634 6.35894 0.703424V0H5.46529V0.545015L5.22895 0.537815C5.17479 0.533014 5.09601 0.530614 4.99261 0.530614C4.7612 0.530614 4.59133 0.535415 4.48301 0.545015V0H3.58937V0.703424C2.87051 0.890634 2.24028 1.21585 1.69867 1.67908C1.15707 2.1423 0.738552 2.69554 0.443131 3.33877C0.147711 3.98201 0 4.65885 0 5.36929C0 5.91652 0.0763171 6.44935 0.228951 6.96777C0.381585 7.4862 0.605613 7.95063 0.901034 8.36105C1.19646 8.77148 1.5485 9.09189 1.95716 9.32231V9.37991H0.546529V11H8.91433Z" fill="#272A37"/>
</svg>
