<svg width="12" height="12" viewBox="0 0 12 12" fill="none" xmlns="http://www.w3.org/2000/svg">
<path d="M3.97263 12H1.13887C0.837056 11.9996 0.547728 11.8795 0.334315 11.6661C0.120902 11.4527 0.000820663 11.1633 0.00039677 10.8615V8.22326C0.000356181 8.07433 0.0297842 7.92687 0.0869853 7.78937C0.144186 7.65186 0.22803 7.52704 0.333686 7.42208L7.41848 0.33328C7.6321 0.119873 7.92171 0 8.22366 0C8.52562 0 8.81522 0.119873 9.02884 0.33328L11.6663 2.97155C11.8797 3.18517 11.9996 3.47478 11.9996 3.77673C11.9996 4.07869 11.8797 4.36829 11.6663 4.58191L5.58219 10.6668H11.0566C11.2334 10.6668 11.403 10.7371 11.528 10.8621C11.653 10.9871 11.7232 11.1566 11.7232 11.3334C11.7232 11.5102 11.653 11.6798 11.528 11.8048C11.403 11.9298 11.2334 12 11.0566 12H3.97263ZM1.33355 10.6668H2.36306L1.33355 9.63733V10.6668ZM3.97343 10.3912L8.73001 5.63466L6.36654 3.27119L1.60996 8.02777L3.97343 10.3912ZM9.67219 4.69248L10.5879 3.77673L8.22447 1.41326L7.30792 2.32901L9.67219 4.69248Z" fill="#6F7383"/>
</svg>
