<svg width="23" height="18" viewBox="0 0 23 18" fill="none" xmlns="http://www.w3.org/2000/svg">
<path d="M7.73744 14.2707C7.70142 13.2695 7.27818 12.3213 6.55682 11.6257C5.83546 10.9301 4.87225 10.5414 3.86994 10.5414C2.86764 10.5414 1.90442 10.9301 1.18306 11.6257C0.4617 12.3213 0.0384636 13.2695 0.00244141 14.2707C0.0384636 15.2719 0.4617 16.2201 1.18306 16.9157C1.90442 17.6113 2.86764 18 3.86994 18C4.87225 18 5.83546 17.6113 6.55682 16.9157C7.27818 16.2201 7.70142 15.2719 7.73744 14.2707ZM4.51544 14.2707C4.52023 14.3992 4.48648 14.5262 4.41853 14.6353C4.35059 14.7445 4.25154 14.8308 4.13413 14.8833C4.01671 14.9358 3.88628 14.9519 3.7596 14.9298C3.63291 14.9076 3.51575 14.848 3.42317 14.7588C3.33059 14.6696 3.26681 14.5547 3.24003 14.429C3.21324 14.3032 3.22468 14.1724 3.27287 14.0532C3.32106 13.934 3.4038 13.8319 3.51046 13.7601C3.61712 13.6882 3.74283 13.6499 3.87144 13.65C4.03899 13.6473 4.20076 13.7112 4.32129 13.8275C4.44183 13.9439 4.51129 14.1033 4.51444 14.2707H4.51544ZM22.0024 13.0303C21.9767 11.6885 21.419 10.4119 20.452 9.48091C19.485 8.54994 18.1878 8.04083 16.8454 8.06545C15.5035 8.0411 14.2068 8.55022 13.2402 9.48097C12.2736 10.4117 11.7162 11.688 11.6904 13.0293C11.7159 14.3706 12.2733 15.6469 13.24 16.5775C14.2067 17.5082 15.5035 18.017 16.8454 17.9921C18.1874 18.017 19.4843 17.5084 20.4513 16.578C21.4183 15.6476 21.9762 14.3716 22.0024 13.0303V13.0303ZM18.7804 13.0303C18.771 13.5338 18.5618 14.013 18.1989 14.3624C17.8361 14.7118 17.3492 14.9028 16.8454 14.8934C16.3418 14.9025 15.8552 14.7114 15.4926 14.362C15.1299 14.0126 14.9209 13.5336 14.9114 13.0303C14.9214 12.5273 15.1307 12.0487 15.4933 11.6998C15.8559 11.3509 16.3422 11.16 16.8454 11.1691C17.3489 11.1597 17.8354 11.3505 18.1982 11.6994C18.5611 12.0484 18.7705 12.5271 18.7804 13.0303ZM10.4024 14.8934V13.0303H8.86544C8.97215 13.4352 9.02659 13.852 9.02744 14.2707C9.02804 14.4783 9.01468 14.6857 8.98744 14.8914L10.4024 14.8934ZM17.4914 13.0303C17.4962 12.9019 17.4625 12.775 17.3947 12.6659C17.3268 12.5568 17.2279 12.4704 17.1106 12.4179C16.9933 12.3654 16.863 12.3491 16.7363 12.3711C16.6097 12.3931 16.4925 12.4525 16.3999 12.5415C16.3072 12.6305 16.2433 12.7452 16.2163 12.8708C16.1893 12.9964 16.2004 13.1272 16.2483 13.2464C16.2962 13.3657 16.3786 13.4679 16.485 13.54C16.5914 13.612 16.7169 13.6507 16.8454 13.651C17.0134 13.6539 17.1756 13.5903 17.2967 13.474C17.4177 13.3576 17.4878 13.1981 17.4914 13.0303ZM10.5314 11.7898C10.8588 10.3662 11.6637 9.09746 12.8123 8.19443C13.961 7.29141 15.3842 6.80851 16.8454 6.826C18.3329 6.82407 19.7774 7.32382 20.9454 8.24437L21.7664 7.28679C20.4698 6.26889 18.8894 5.67797 17.2427 5.59544C15.5961 5.51291 13.9644 5.94284 12.5724 6.826H3.86644C3.19647 6.81528 2.54951 7.07013 2.06699 7.53483C1.58446 7.99954 1.30563 8.6363 1.29144 9.30591V9.97361C2.07948 9.53427 2.96711 9.30437 3.86944 9.30591C4.76455 9.30064 5.64585 9.52642 6.42807 9.9614C7.21029 10.3964 7.86693 11.0258 8.33444 11.7888L10.5314 11.7898ZM6.44844 5.58454V3.72336C6.43846 3.22034 6.2292 2.74184 5.8666 2.3929C5.504 2.04395 5.01769 1.85308 4.51444 1.86218V3.09864C4.68225 3.09569 4.84439 3.15938 4.9653 3.27574C5.08621 3.3921 5.15602 3.55163 5.15944 3.71936V5.58454H6.44844ZM12.2024 5.58454C14.1922 4.44004 16.5348 4.07054 18.7804 4.547L18.7804 1.24045H20.0684V0H9.75444V1.24045H10.8764L9.69244 5.58454H12.2024Z" fill="#272A37"/>
</svg>
