<svg width="16" height="16" viewBox="0 0 16 16" fill="none" xmlns="http://www.w3.org/2000/svg">
<mask id="mask0_543_1193" style="mask-type:alpha" maskUnits="userSpaceOnUse" x="0" y="0" width="16" height="16">
<path d="M15.4982 8.00007C15.4982 12.1422 12.1407 15.4999 7.99912 15.4999C3.85751 15.4999 0.5 12.1422 0.5 8.00007C0.5 3.85799 3.85751 0.500244 7.99912 0.500244C12.1407 0.500244 15.4982 3.85799 15.4982 8.00007Z" fill="white" stroke="#E9E9F0"/>
</mask>
<g mask="url(#mask0_543_1193)">
<path d="M32.5332 -0.71701H-7.99661V0.924323H32.5332V-0.71701Z" fill="#BD3D44"/>
<path d="M32.5332 2.56433H-7.99661V4.20566H32.5332V2.56433Z" fill="#BD3D44"/>
<path d="M32.5332 5.84702H-7.99661V7.48835H32.5332V5.84702Z" fill="#BD3D44"/>
<path d="M32.5332 9.12833H-7.99661V10.7697H32.5332V9.12833Z" fill="#BD3D44"/>
<path d="M32.5332 12.411H-7.99661V14.0523H32.5332V12.411Z" fill="#BD3D44"/>
<path d="M32.5332 15.6924H-7.99661V17.3337H32.5332V15.6924Z" fill="#BD3D44"/>
<path d="M32.5332 0.924316H-7.99661V2.56565H32.5332V0.924316Z" fill="white"/>
<path d="M32.5332 4.20566H-7.99661V5.84699H32.5332V4.20566Z" fill="white"/>
<path d="M32.5332 7.48834H-7.99661V9.12967H32.5332V7.48834Z" fill="white"/>
<path d="M32.5332 10.7697H-7.99661V12.411H32.5332V10.7697Z" fill="white"/>
<path d="M32.5332 14.0523H-7.99661V15.6937H32.5332V14.0523Z" fill="white"/>
<path d="M8.21529 -3.99966H-7.99661V7.487H8.21529V-3.99966Z" fill="#192F5D"/>
<path fill-rule="evenodd" clip-rule="evenodd" d="M0.10806 -0.0610352L0.25606 0.393632H0.733393L0.346727 0.673632L0.494727 1.1283L0.10806 0.848298L-0.278606 1.1283L-0.130606 0.673632L-0.517273 0.393632H-0.0399399L0.10806 -0.0610352Z" fill="white"/>
<path fill-rule="evenodd" clip-rule="evenodd" d="M2.80914 -0.0610352L2.95714 0.393632H3.43447L3.04781 0.673632L3.19581 1.1283L2.80914 0.848298L2.42247 1.1283L2.57047 0.673632L2.18381 0.393632H2.66114L2.80914 -0.0610352Z" fill="white"/>
<path fill-rule="evenodd" clip-rule="evenodd" d="M5.51156 -0.0610352L5.65956 0.393632H6.1369L5.75023 0.673632L5.89823 1.1283L5.51156 0.848298L5.1249 1.1283L5.2729 0.673632L4.88623 0.393632H5.36356L5.51156 -0.0610352Z" fill="white"/>
<path fill-rule="evenodd" clip-rule="evenodd" d="M1.45859 1.08698L1.60659 1.54164H2.08392L1.69725 1.82164L1.84525 2.27631L1.45859 1.99631L1.07192 2.27631L1.21992 1.82164L0.833252 1.54164H1.31059L1.45859 1.08698Z" fill="white"/>
<path fill-rule="evenodd" clip-rule="evenodd" d="M4.16101 1.08698L4.30901 1.54164H4.78634L4.39967 1.82164L4.54767 2.27631L4.16101 1.99631L3.77434 2.27631L3.92234 1.82164L3.53568 1.54164H4.01301L4.16101 1.08698Z" fill="white"/>
<path fill-rule="evenodd" clip-rule="evenodd" d="M6.86343 1.08698L7.01143 1.54164H7.48876L7.1021 1.82164L7.2501 2.27631L6.86343 1.99631L6.47676 2.27631L6.62476 1.82164L6.2381 1.54164H6.71543L6.86343 1.08698Z" fill="white"/>
<path fill-rule="evenodd" clip-rule="evenodd" d="M0.10806 2.2363L0.25606 2.69097H0.733393L0.346727 2.97097L0.494727 3.42563L0.10806 3.14563L-0.278606 3.42563L-0.130606 2.97097L-0.517273 2.69097H-0.0399399L0.10806 2.2363Z" fill="white"/>
<path fill-rule="evenodd" clip-rule="evenodd" d="M2.80914 2.2363L2.95714 2.69097H3.43447L3.04781 2.97097L3.19581 3.42563L2.80914 3.14563L2.42247 3.42563L2.57047 2.97097L2.18381 2.69097H2.66114L2.80914 2.2363Z" fill="white"/>
<path fill-rule="evenodd" clip-rule="evenodd" d="M5.51156 2.2363L5.65956 2.69097H6.1369L5.75023 2.97097L5.89823 3.42563L5.51156 3.14563L5.1249 3.42563L5.2729 2.97097L4.88623 2.69097H5.36356L5.51156 2.2363Z" fill="white"/>
<path fill-rule="evenodd" clip-rule="evenodd" d="M1.45859 3.38431L1.60659 3.83898H2.08392L1.69725 4.11898L1.84525 4.57364L1.45859 4.29364L1.07192 4.57364L1.21992 4.11898L0.833252 3.83898H1.31059L1.45859 3.38431Z" fill="white"/>
<path fill-rule="evenodd" clip-rule="evenodd" d="M4.16101 3.38431L4.30901 3.83898H4.78634L4.39967 4.11898L4.54767 4.57364L4.16101 4.29364L3.77434 4.57364L3.92234 4.11898L3.53568 3.83898H4.01301L4.16101 3.38431Z" fill="white"/>
<path fill-rule="evenodd" clip-rule="evenodd" d="M6.86343 3.38431L7.01143 3.83898H7.48876L7.1021 4.11898L7.2501 4.57364L6.86343 4.29364L6.47676 4.57364L6.62476 4.11898L6.2381 3.83898H6.71543L6.86343 3.38431Z" fill="white"/>
<path fill-rule="evenodd" clip-rule="evenodd" d="M0.10806 4.53363L0.25606 4.9883H0.733393L0.346727 5.2683L0.494727 5.72296L0.10806 5.44296L-0.278606 5.72296L-0.130606 5.2683L-0.517273 4.9883H-0.0399399L0.10806 4.53363Z" fill="white"/>
<path fill-rule="evenodd" clip-rule="evenodd" d="M2.80914 4.53363L2.95714 4.9883H3.43447L3.04781 5.2683L3.19581 5.72296L2.80914 5.44296L2.42247 5.72296L2.57047 5.2683L2.18381 4.9883H2.66114L2.80914 4.53363Z" fill="white"/>
<path fill-rule="evenodd" clip-rule="evenodd" d="M5.51156 4.53363L5.65956 4.9883H6.1369L5.75023 5.2683L5.89823 5.72296L5.51156 5.44296L5.1249 5.72296L5.2729 5.2683L4.88623 4.9883H5.36356L5.51156 4.53363Z" fill="white"/>
<path fill-rule="evenodd" clip-rule="evenodd" d="M1.45859 5.68164L1.60659 6.13631H2.08392L1.69725 6.41631L1.84525 6.87097L1.45859 6.59097L1.07192 6.87097L1.21992 6.41631L0.833252 6.13631H1.31059L1.45859 5.68164Z" fill="white"/>
<path fill-rule="evenodd" clip-rule="evenodd" d="M4.16101 5.68164L4.30901 6.13631H4.78634L4.39967 6.41631L4.54767 6.87097L4.16101 6.59097L3.77434 6.87097L3.92234 6.41631L3.53568 6.13631H4.01301L4.16101 5.68164Z" fill="white"/>
<path fill-rule="evenodd" clip-rule="evenodd" d="M6.86343 5.68164L7.01143 6.13631H7.48876L7.1021 6.41631L7.2501 6.87097L6.86343 6.59097L6.47676 6.87097L6.62476 6.41631L6.2381 6.13631H6.71543L6.86343 5.68164Z" fill="white"/>
</g>
</svg>
